<mxfile host="app.diagrams.net" agent="Mozilla/5.0 (X11; Linux x86_64) AppleWebKit/537.36 (KHTML, like Gecko) Chrome/134.0.0.0 Safari/537.36" version="26.2.3">
  <diagram name="Page-1" id="sdyggujJHNHN_Gtt9IOw">
    <mxGraphModel dx="1716" dy="1402" grid="1" gridSize="10" guides="1" tooltips="1" connect="1" arrows="1" fold="1" page="1" pageScale="1" pageWidth="850" pageHeight="1100" math="0" shadow="0">
      <root>
        <mxCell id="0" />
        <mxCell id="1" parent="0" />
        <mxCell id="iOZSQs0oFjM2b9_TLqqi-8" value="&lt;span style=&quot;font-size: 12px; text-align: left;&quot;&gt;Client Layer&amp;nbsp; &amp;nbsp;&lt;/span&gt;" style="swimlane;childLayout=stackLayout;horizontal=1;startSize=50;horizontalStack=0;rounded=1;fontSize=14;fontStyle=0;strokeWidth=2;resizeParent=0;resizeLast=1;shadow=0;dashed=0;align=center;arcSize=4;whiteSpace=wrap;html=1;" vertex="1" parent="1">
          <mxGeometry x="1110" y="520" width="550" height="120" as="geometry" />
        </mxCell>
        <mxCell id="iOZSQs0oFjM2b9_TLqqi-9" value="&lt;div&gt;-Web UI (HTML, CSS, JavaScript, React, Vue)&amp;nbsp;&lt;/div&gt;&lt;div&gt;-AJAX / Fetch API Requests&lt;/div&gt;&lt;div&gt;- Sends HTTP Requests to Backend APIs&amp;nbsp;&lt;/div&gt;" style="align=left;strokeColor=none;fillColor=none;spacingLeft=4;spacingRight=4;fontSize=12;verticalAlign=top;resizable=0;rotatable=0;part=1;html=1;whiteSpace=wrap;" vertex="1" parent="iOZSQs0oFjM2b9_TLqqi-8">
          <mxGeometry y="50" width="550" height="70" as="geometry" />
        </mxCell>
        <mxCell id="iOZSQs0oFjM2b9_TLqqi-11" value="&lt;span style=&quot;font-size: 12px; text-align: left;&quot;&gt;Django Layer&lt;/span&gt;" style="swimlane;childLayout=stackLayout;horizontal=1;startSize=50;horizontalStack=0;rounded=1;fontSize=14;fontStyle=0;strokeWidth=2;resizeParent=0;resizeLast=1;shadow=0;dashed=0;align=center;arcSize=4;whiteSpace=wrap;html=1;" vertex="1" parent="1">
          <mxGeometry x="1300" y="760" width="160" height="120" as="geometry" />
        </mxCell>
        <mxCell id="iOZSQs0oFjM2b9_TLqqi-12" value="Django API Service&lt;div&gt;(MVT Pattern)&lt;/div&gt;&lt;div&gt;DJango ORM&lt;/div&gt;&lt;div&gt;ROle-Based Access&lt;/div&gt;" style="align=left;strokeColor=none;fillColor=none;spacingLeft=4;spacingRight=4;fontSize=12;verticalAlign=top;resizable=0;rotatable=0;part=1;html=1;whiteSpace=wrap;" vertex="1" parent="iOZSQs0oFjM2b9_TLqqi-11">
          <mxGeometry y="50" width="160" height="70" as="geometry" />
        </mxCell>
        <mxCell id="iOZSQs0oFjM2b9_TLqqi-13" value="&lt;span style=&quot;font-size: 12px; text-align: left;&quot;&gt;Flask Layer&lt;/span&gt;" style="swimlane;childLayout=stackLayout;horizontal=1;startSize=50;horizontalStack=0;rounded=1;fontSize=14;fontStyle=0;strokeWidth=2;resizeParent=0;resizeLast=1;shadow=0;dashed=0;align=center;arcSize=4;whiteSpace=wrap;html=1;" vertex="1" parent="1">
          <mxGeometry x="1090" y="760" width="160" height="120" as="geometry" />
        </mxCell>
        <mxCell id="iOZSQs0oFjM2b9_TLqqi-14" value="Flask API&lt;div&gt;(MVC Pattern)&lt;/div&gt;&lt;div&gt;SQLAlchemy&lt;/div&gt;&lt;div&gt;JWT AUth&lt;/div&gt;" style="align=left;strokeColor=none;fillColor=none;spacingLeft=4;spacingRight=4;fontSize=12;verticalAlign=top;resizable=0;rotatable=0;part=1;html=1;whiteSpace=wrap;" vertex="1" parent="iOZSQs0oFjM2b9_TLqqi-13">
          <mxGeometry y="50" width="160" height="70" as="geometry" />
        </mxCell>
        <mxCell id="iOZSQs0oFjM2b9_TLqqi-17" value="&lt;span style=&quot;font-size: 12px; text-align: left;&quot;&gt;Database Layer&lt;/span&gt;" style="swimlane;childLayout=stackLayout;horizontal=1;startSize=50;horizontalStack=0;rounded=1;fontSize=14;fontStyle=0;strokeWidth=2;resizeParent=0;resizeLast=1;shadow=0;dashed=0;align=center;arcSize=4;whiteSpace=wrap;html=1;" vertex="1" parent="1">
          <mxGeometry x="1110" y="1000" width="550" height="120" as="geometry" />
        </mxCell>
        <mxCell id="iOZSQs0oFjM2b9_TLqqi-18" value="-MySQL&amp;nbsp; Database(FlaskMVC_db, DjangoMVT_db, FastCRUD_db)&lt;div&gt;-Data stored and retrived usijng ORM (SQL Alchemy)&lt;/div&gt;&lt;div&gt;- Indexing and query Optimizing for Performing&amp;nbsp;&amp;nbsp;&lt;span style=&quot;white-space: pre;&quot;&gt;&#x9;&lt;/span&gt;&lt;/div&gt;" style="align=left;strokeColor=none;fillColor=none;spacingLeft=4;spacingRight=4;fontSize=12;verticalAlign=top;resizable=0;rotatable=0;part=1;html=1;whiteSpace=wrap;" vertex="1" parent="iOZSQs0oFjM2b9_TLqqi-17">
          <mxGeometry y="50" width="550" height="70" as="geometry" />
        </mxCell>
        <mxCell id="iOZSQs0oFjM2b9_TLqqi-26" value="&lt;span style=&quot;font-size: 12px; text-align: left;&quot;&gt;FastAPI Layer&lt;/span&gt;" style="swimlane;childLayout=stackLayout;horizontal=1;startSize=50;horizontalStack=0;rounded=1;fontSize=14;fontStyle=0;strokeWidth=2;resizeParent=0;resizeLast=1;shadow=0;dashed=0;align=center;arcSize=4;whiteSpace=wrap;html=1;" vertex="1" parent="1">
          <mxGeometry x="1510" y="760" width="160" height="120" as="geometry" />
        </mxCell>
        <mxCell id="iOZSQs0oFjM2b9_TLqqi-27" value="Django API Service&lt;div&gt;(MVT Pattern)&lt;/div&gt;&lt;div&gt;DJango ORM&lt;/div&gt;&lt;div&gt;ROle-Based Access&lt;/div&gt;" style="align=left;strokeColor=none;fillColor=none;spacingLeft=4;spacingRight=4;fontSize=12;verticalAlign=top;resizable=0;rotatable=0;part=1;html=1;whiteSpace=wrap;" vertex="1" parent="iOZSQs0oFjM2b9_TLqqi-26">
          <mxGeometry y="50" width="160" height="70" as="geometry" />
        </mxCell>
        <mxCell id="iOZSQs0oFjM2b9_TLqqi-34" value="" style="endArrow=none;dashed=1;html=1;rounded=0;entryX=0.113;entryY=1.037;entryDx=0;entryDy=0;entryPerimeter=0;exitX=0.5;exitY=0;exitDx=0;exitDy=0;" edge="1" parent="1" source="iOZSQs0oFjM2b9_TLqqi-13" target="iOZSQs0oFjM2b9_TLqqi-9">
          <mxGeometry width="50" height="50" relative="1" as="geometry">
            <mxPoint x="1170" y="740" as="sourcePoint" />
            <mxPoint x="1170" y="660" as="targetPoint" />
          </mxGeometry>
        </mxCell>
        <mxCell id="iOZSQs0oFjM2b9_TLqqi-35" value="" style="endArrow=none;dashed=1;html=1;rounded=0;exitX=0.5;exitY=0;exitDx=0;exitDy=0;" edge="1" parent="1" source="iOZSQs0oFjM2b9_TLqqi-11">
          <mxGeometry width="50" height="50" relative="1" as="geometry">
            <mxPoint x="1180" y="770" as="sourcePoint" />
            <mxPoint x="1380" y="643" as="targetPoint" />
          </mxGeometry>
        </mxCell>
        <mxCell id="iOZSQs0oFjM2b9_TLqqi-36" value="" style="endArrow=none;dashed=1;html=1;rounded=0;exitX=0.5;exitY=0;exitDx=0;exitDy=0;" edge="1" parent="1" source="iOZSQs0oFjM2b9_TLqqi-26">
          <mxGeometry width="50" height="50" relative="1" as="geometry">
            <mxPoint x="1390" y="770" as="sourcePoint" />
            <mxPoint x="1590" y="644" as="targetPoint" />
          </mxGeometry>
        </mxCell>
        <mxCell id="iOZSQs0oFjM2b9_TLqqi-37" value="" style="endArrow=none;dashed=1;html=1;rounded=0;entryX=0.113;entryY=1.037;entryDx=0;entryDy=0;entryPerimeter=0;exitX=0.5;exitY=0;exitDx=0;exitDy=0;" edge="1" parent="1">
          <mxGeometry width="50" height="50" relative="1" as="geometry">
            <mxPoint x="1169" y="997" as="sourcePoint" />
            <mxPoint x="1171" y="880" as="targetPoint" />
          </mxGeometry>
        </mxCell>
        <mxCell id="iOZSQs0oFjM2b9_TLqqi-38" value="" style="endArrow=none;dashed=1;html=1;rounded=0;entryX=0.113;entryY=1.037;entryDx=0;entryDy=0;entryPerimeter=0;exitX=0.5;exitY=0;exitDx=0;exitDy=0;" edge="1" parent="1">
          <mxGeometry width="50" height="50" relative="1" as="geometry">
            <mxPoint x="1379" y="997" as="sourcePoint" />
            <mxPoint x="1381" y="880" as="targetPoint" />
          </mxGeometry>
        </mxCell>
        <mxCell id="iOZSQs0oFjM2b9_TLqqi-39" value="" style="endArrow=none;dashed=1;html=1;rounded=0;entryX=0.113;entryY=1.037;entryDx=0;entryDy=0;entryPerimeter=0;exitX=0.5;exitY=0;exitDx=0;exitDy=0;" edge="1" parent="1">
          <mxGeometry width="50" height="50" relative="1" as="geometry">
            <mxPoint x="1589" y="997" as="sourcePoint" />
            <mxPoint x="1591" y="880" as="targetPoint" />
          </mxGeometry>
        </mxCell>
        <mxCell id="iOZSQs0oFjM2b9_TLqqi-44" value="Â CRUD Operations (POST, GET, PUT, DELETE)" style="text;whiteSpace=wrap;" vertex="1" parent="1">
          <mxGeometry x="1245" y="930" width="270" height="10" as="geometry" />
        </mxCell>
        <mxCell id="iOZSQs0oFjM2b9_TLqqi-52" value="" style="endArrow=none;dashed=1;html=1;rounded=0;entryX=0;entryY=1;entryDx=0;entryDy=0;" edge="1" parent="1">
          <mxGeometry width="50" height="50" relative="1" as="geometry">
            <mxPoint x="1180" y="944" as="sourcePoint" />
            <mxPoint x="1245.0000000000005" y="944" as="targetPoint" />
          </mxGeometry>
        </mxCell>
        <mxCell id="iOZSQs0oFjM2b9_TLqqi-53" value="" style="endArrow=none;dashed=1;html=1;rounded=0;" edge="1" parent="1">
          <mxGeometry width="50" height="50" relative="1" as="geometry">
            <mxPoint x="1510" y="945" as="sourcePoint" />
            <mxPoint x="1590" y="945" as="targetPoint" />
          </mxGeometry>
        </mxCell>
        <mxCell id="iOZSQs0oFjM2b9_TLqqi-57" value="&lt;div style=&quot;text-align: left;&quot;&gt;&lt;span style=&quot;background-color: transparent; font-size: 12px;&quot;&gt;Authentication &amp;amp; Security Layer&amp;nbsp;&lt;/span&gt;&lt;/div&gt;" style="swimlane;childLayout=stackLayout;horizontal=1;startSize=50;horizontalStack=0;rounded=1;fontSize=14;fontStyle=0;strokeWidth=2;resizeParent=0;resizeLast=1;shadow=0;dashed=0;align=center;arcSize=4;whiteSpace=wrap;html=1;" vertex="1" parent="1">
          <mxGeometry x="1105" y="1190" width="550" height="120" as="geometry" />
        </mxCell>
        <mxCell id="iOZSQs0oFjM2b9_TLqqi-58" value="&lt;div&gt;- JWT (JSON Web Token) Authentication&lt;/div&gt;&lt;div&gt;- Access &amp;amp; Refresh Tokens&amp;nbsp;&lt;/div&gt;&lt;div&gt;- Role-Based Access Control&lt;/div&gt;&lt;div&gt;- Secure Password Hashing (Bcrypt)&amp;nbsp;&lt;/div&gt;" style="align=left;strokeColor=none;fillColor=none;spacingLeft=4;spacingRight=4;fontSize=12;verticalAlign=top;resizable=0;rotatable=0;part=1;html=1;whiteSpace=wrap;" vertex="1" parent="iOZSQs0oFjM2b9_TLqqi-57">
          <mxGeometry y="50" width="550" height="70" as="geometry" />
        </mxCell>
        <mxCell id="iOZSQs0oFjM2b9_TLqqi-59" value="&lt;div style=&quot;text-align: left;&quot;&gt;&lt;span style=&quot;background-color: transparent; font-size: 12px;&quot;&gt;Authentication &amp;amp; Security Layer&amp;nbsp;&lt;/span&gt;&lt;/div&gt;" style="swimlane;childLayout=stackLayout;horizontal=1;startSize=50;horizontalStack=0;rounded=1;fontSize=14;fontStyle=0;strokeWidth=2;resizeParent=0;resizeLast=1;shadow=0;dashed=0;align=center;arcSize=4;whiteSpace=wrap;html=1;" vertex="1" parent="1">
          <mxGeometry x="1105" y="1380" width="550" height="120" as="geometry" />
        </mxCell>
        <mxCell id="iOZSQs0oFjM2b9_TLqqi-60" value="&lt;div&gt;- JWT (JSON Web Token) Authentication&lt;/div&gt;&lt;div&gt;- Access &amp;amp; Refresh Tokens&amp;nbsp;&lt;/div&gt;&lt;div&gt;- Role-Based Access Control&lt;/div&gt;&lt;div&gt;- Secure Password Hashing (Bcrypt)&amp;nbsp;&lt;/div&gt;" style="align=left;strokeColor=none;fillColor=none;spacingLeft=4;spacingRight=4;fontSize=12;verticalAlign=top;resizable=0;rotatable=0;part=1;html=1;whiteSpace=wrap;" vertex="1" parent="iOZSQs0oFjM2b9_TLqqi-59">
          <mxGeometry y="50" width="550" height="70" as="geometry" />
        </mxCell>
        <mxCell id="iOZSQs0oFjM2b9_TLqqi-61" value="" style="endArrow=none;dashed=1;html=1;rounded=0;entryX=0.113;entryY=1.037;entryDx=0;entryDy=0;entryPerimeter=0;" edge="1" parent="1">
          <mxGeometry width="50" height="50" relative="1" as="geometry">
            <mxPoint x="1171" y="1190" as="sourcePoint" />
            <mxPoint x="1171" y="1120" as="targetPoint" />
          </mxGeometry>
        </mxCell>
        <mxCell id="iOZSQs0oFjM2b9_TLqqi-62" value="" style="endArrow=none;dashed=1;html=1;rounded=0;entryX=0.113;entryY=1.037;entryDx=0;entryDy=0;entryPerimeter=0;" edge="1" parent="1">
          <mxGeometry width="50" height="50" relative="1" as="geometry">
            <mxPoint x="1380" y="1190" as="sourcePoint" />
            <mxPoint x="1381" y="1120" as="targetPoint" />
          </mxGeometry>
        </mxCell>
        <mxCell id="iOZSQs0oFjM2b9_TLqqi-63" value="" style="endArrow=none;dashed=1;html=1;rounded=0;entryX=0.113;entryY=1.037;entryDx=0;entryDy=0;entryPerimeter=0;" edge="1" parent="1">
          <mxGeometry width="50" height="50" relative="1" as="geometry">
            <mxPoint x="1590" y="1190" as="sourcePoint" />
            <mxPoint x="1591" y="1120" as="targetPoint" />
          </mxGeometry>
        </mxCell>
        <mxCell id="iOZSQs0oFjM2b9_TLqqi-64" value="" style="endArrow=none;dashed=1;html=1;rounded=0;entryX=0.113;entryY=1.037;entryDx=0;entryDy=0;entryPerimeter=0;" edge="1" parent="1">
          <mxGeometry width="50" height="50" relative="1" as="geometry">
            <mxPoint x="1170" y="1380" as="sourcePoint" />
            <mxPoint x="1170" y="1310" as="targetPoint" />
          </mxGeometry>
        </mxCell>
        <mxCell id="iOZSQs0oFjM2b9_TLqqi-65" value="" style="endArrow=none;dashed=1;html=1;rounded=0;entryX=0.113;entryY=1.037;entryDx=0;entryDy=0;entryPerimeter=0;" edge="1" parent="1">
          <mxGeometry width="50" height="50" relative="1" as="geometry">
            <mxPoint x="1379" y="1380" as="sourcePoint" />
            <mxPoint x="1380" y="1310" as="targetPoint" />
          </mxGeometry>
        </mxCell>
        <mxCell id="iOZSQs0oFjM2b9_TLqqi-66" value="" style="endArrow=none;dashed=1;html=1;rounded=0;entryX=0.113;entryY=1.037;entryDx=0;entryDy=0;entryPerimeter=0;" edge="1" parent="1">
          <mxGeometry width="50" height="50" relative="1" as="geometry">
            <mxPoint x="1589" y="1380" as="sourcePoint" />
            <mxPoint x="1590" y="1310" as="targetPoint" />
          </mxGeometry>
        </mxCell>
        <mxCell id="iOZSQs0oFjM2b9_TLqqi-67" value="&lt;div style=&quot;text-align: left;&quot;&gt;&lt;span style=&quot;font-size: 12px;&quot;&gt;Background Task &amp;amp; File Handling&lt;/span&gt;&lt;/div&gt;" style="swimlane;childLayout=stackLayout;horizontal=1;startSize=50;horizontalStack=0;rounded=1;fontSize=14;fontStyle=0;strokeWidth=2;resizeParent=0;resizeLast=1;shadow=0;dashed=0;align=center;arcSize=4;whiteSpace=wrap;html=1;" vertex="1" parent="1">
          <mxGeometry x="1105" y="1570" width="550" height="120" as="geometry" />
        </mxCell>
        <mxCell id="iOZSQs0oFjM2b9_TLqqi-68" value="&lt;div&gt;- Threading &amp;amp; Background Processing&amp;nbsp;&lt;/div&gt;&lt;div&gt;- File Upload and save (Images, Documents)&lt;/div&gt;&lt;div&gt;- Logging &amp;amp; Monitoring&amp;nbsp;&lt;/div&gt;" style="align=left;strokeColor=none;fillColor=none;spacingLeft=4;spacingRight=4;fontSize=12;verticalAlign=top;resizable=0;rotatable=0;part=1;html=1;whiteSpace=wrap;" vertex="1" parent="iOZSQs0oFjM2b9_TLqqi-67">
          <mxGeometry y="50" width="550" height="70" as="geometry" />
        </mxCell>
        <mxCell id="iOZSQs0oFjM2b9_TLqqi-71" value="" style="endArrow=none;dashed=1;html=1;rounded=0;entryX=0.113;entryY=1.037;entryDx=0;entryDy=0;entryPerimeter=0;" edge="1" parent="1">
          <mxGeometry width="50" height="50" relative="1" as="geometry">
            <mxPoint x="1170" y="1570" as="sourcePoint" />
            <mxPoint x="1170" y="1500" as="targetPoint" />
          </mxGeometry>
        </mxCell>
        <mxCell id="iOZSQs0oFjM2b9_TLqqi-72" value="" style="endArrow=none;dashed=1;html=1;rounded=0;entryX=0.113;entryY=1.037;entryDx=0;entryDy=0;entryPerimeter=0;" edge="1" parent="1">
          <mxGeometry width="50" height="50" relative="1" as="geometry">
            <mxPoint x="1379" y="1570" as="sourcePoint" />
            <mxPoint x="1380" y="1500" as="targetPoint" />
          </mxGeometry>
        </mxCell>
        <mxCell id="iOZSQs0oFjM2b9_TLqqi-73" value="" style="endArrow=none;dashed=1;html=1;rounded=0;entryX=0.113;entryY=1.037;entryDx=0;entryDy=0;entryPerimeter=0;" edge="1" parent="1">
          <mxGeometry width="50" height="50" relative="1" as="geometry">
            <mxPoint x="1589" y="1570" as="sourcePoint" />
            <mxPoint x="1590" y="1500" as="targetPoint" />
          </mxGeometry>
        </mxCell>
      </root>
    </mxGraphModel>
  </diagram>
</mxfile>
